<svg xmlns="http://www.w3.org/2000/svg" viewBox="0 0 149.62 104.12"><g id="Layer_2" data-name="Layer 2"><g id="Layer_1-2" data-name="Layer 1"><path d="M82.51,80.44H55.73V75.61H66.88L59.41,55.39H23.1L15.63,75.61H26.54v4.83H0V75.61H10.11L36.31,4.83H25.74V0H44.36L72.51,75.61h10ZM41.25,6,24.94,50.33H57.57Z"/><path d="M139.28,4.83,113.19,80.44h-6.43L80.67,4.83H70.33V0H97V4.83H86.53L110,74.35,133.76,4.83H123.19V0h26.43V4.83Z"/><path d="M1.74,101.49,1.17,104H.49L3,92.63H4.06L6.59,104H5.84l-.57-2.52Zm.11-.65H5.16L3.49,93.49Z"/><path d="M13.89,104V92.64h.75v10.69h3.57V104Z"/><path d="M26.24,92.64V104h-.75V92.64Z"/><path d="M38.49,95.39v.24h-.71v-.29c0-1.2-.46-2.11-1.69-2.11s-1.69.89-1.69,2.09c0,2.76,4.11,2.81,4.11,6,0,1.63-.72,2.84-2.45,2.84s-2.45-1.21-2.45-2.84v-.59h.71v.63c0,1.22.47,2.1,1.72,2.1s1.72-.88,1.72-2.1c0-2.72-4.11-2.77-4.11-5.94,0-1.7.75-2.81,2.42-2.82S38.49,93.75,38.49,95.39Z"/><path d="M45.83,95.42c0-1.66.76-2.87,2.48-2.87s2.52,1.21,2.52,2.87v5.81c0,1.66-.77,2.88-2.52,2.88s-2.48-1.22-2.48-2.88Zm.74,5.86c0,1.24.49,2.14,1.74,2.14s1.77-.9,1.77-2.14V95.37c0-1.23-.5-2.14-1.77-2.14s-1.74.91-1.74,2.14Z"/><path d="M58.91,104h-.69V92.64h1l3.41,9.6v-9.6h.68V104h-.83L58.91,93.88Z"/><path d="M80.38,92.64l1.85,9.89,1.83-9.89h1.17L83.1,104H81.24L79.09,92.64Z"/><path d="M92.25,95.39c0-1.74.86-2.86,2.6-2.86s2.62,1.12,2.62,2.86v5.88c0,1.72-.87,2.85-2.62,2.85s-2.6-1.13-2.6-2.85Zm1.25,5.94c0,1,.44,1.64,1.35,1.64s1.35-.6,1.35-1.64v-6c0-1-.42-1.64-1.35-1.64s-1.35.62-1.35,1.64Z"/><path d="M109.85,95.39v1h-1.2v-1c0-1-.41-1.64-1.34-1.64S106,94.3,106,95.32v6c0,1,.43,1.64,1.33,1.64s1.34-.62,1.34-1.64V99.06h-1.17V97.92h2.37v3.35c0,1.72-.81,2.85-2.57,2.85s-2.55-1.13-2.55-2.85V95.39c0-1.72.81-2.86,2.55-2.86S109.85,93.67,109.85,95.39Z"/><path d="M118.48,98.89V104h-1.27V92.64h1.27v5.12h2.79V92.64h1.27V104h-1.27V98.89Z"/><path d="M134,97.68v1.13h-2.77v4h3.41V104H130V92.64h4.68V93.8h-3.41v3.88Z"/><path d="M142,104V92.64h1.26v10.22h3.25V104Z"/></g></g></svg>